<?xml version="1.0" encoding="utf-8"?>
<!-- Generator: Adobe Illustrator 21.1.0, SVG Export Plug-In . SVG Version: 6.00 Build 0)  -->
<svg version="1.1" xmlns="http://www.w3.org/2000/svg" xmlns:xlink="http://www.w3.org/1999/xlink" x="0px" y="0px"
	 viewBox="0 0 1000 1000" style="enable-background:new 0 0 1000 1000;" xml:space="preserve">
<style type="text/css">
	.st0{display:none;fill:none;stroke:#000000;stroke-miterlimit:10;}
	.st1{display:none;}
	.st2{display:inline;}
	.st3{display:inline;fill:#C8CACB;}
	.st4{display:none;fill:#C4CBCA;}
	.st5{display:none;fill:#F4619A;}
	.st6{fill:#FFFFFF;}
	.st7{clip-path:url(#SVGID_2_);}
	.st8{display:inline;fill:none;stroke:#000000;stroke-miterlimit:10;}
	.st9{stroke:#000000;stroke-miterlimit:10;}
</style>
<g id="Base_1_">
</g>
<g id="Layer_1">
</g>
<g id="Layer_2">
	<g class="st1">
		<polygon class="st2" points="571.5,620.5 427.7,800.2 283.5,620.5 427.5,332.5 		"/>
		<polygon class="st2" points="931.5,620.5 644.5,979.5 500.7,800.2 644.5,620.5 500.5,332.5 644.5,44.5 		"/>
	</g>
	<g class="st1">
		<polygon class="st3" points="571.5,620.5 427.7,800.2 283.5,620.5 427.5,332.5 		"/>
		<polygon class="st3" points="931.5,620.5 644.5,979.5 500.7,800.2 644.5,620.5 500.5,332.5 644.5,44.5 		"/>
	</g>
	<polygon class="st4" points="571.5,620.5 427.7,800.2 283.5,620.5 427.5,332.5 	"/>
	<polygon class="st5" points="931.5,620.5 644.5,979.5 500.7,800.2 644.5,620.5 500.5,332.5 644.5,44.5 	"/>
	<g class="st1">
		<polygon class="st2" points="571.5,620.5 427.7,800.2 283.5,620.5 427.5,332.5 		"/>
		<polygon class="st2" points="931.5,620.5 644.5,979.5 500.7,800.2 644.5,620.5 500.5,332.5 644.5,44.5 		"/>
	</g>
	<g class="st1">
		<polygon class="st2" points="571.5,620.5 427.7,800.2 283.5,620.5 427.5,332.5 		"/>
		<polygon class="st2" points="931.5,620.5 644.5,979.5 500.7,800.2 644.5,620.5 500.5,332.5 644.5,44.5 		"/>
	</g>
	<polygon class="st6" points="451.6,613.9 301.4,801.7 150.7,613.9 301.2,313 	"/>
	<polygon class="st6" points="827.7,613.9 527.9,989 377.6,801.7 527.9,613.9 377.4,313 527.9,12.2 	"/>
</g>
<g id="Layer_4">
</g>
<g id="Layer_5">
</g>
<g id="Layer_6">
</g>
</svg>
