<?xml version="1.0" encoding="utf-8"?>
<!-- Generator: Adobe Illustrator 21.1.0, SVG Export Plug-In . SVG Version: 6.00 Build 0)  -->
<svg version="1.1" xmlns="http://www.w3.org/2000/svg" xmlns:xlink="http://www.w3.org/1999/xlink" x="0px" y="0px"
	 viewBox="0 0 1000 1000" style="enable-background:new 0 0 1000 1000;" xml:space="preserve">
<style type="text/css">
	.st0{display:none;fill:none;stroke:#000000;stroke-miterlimit:10;}
	.st1{display:none;}
	.st2{display:inline;}
	.st3{display:inline;fill:#C8CACB;}
	.st4{display:none;fill:#C4CBCA;}
	.st5{display:none;fill:#F4619A;}
	.st6{fill:#C4CBCA;}
	.st7{fill:#F9A510;}
	.st8{fill:url(#SVGID_1_);}
	.st9{clip-path:url(#SVGID_3_);}
	.st10{display:inline;fill:none;stroke:#000000;stroke-miterlimit:10;}
	.st11{stroke:#000000;stroke-miterlimit:10;}
	.st12{fill:#FFFFFF;}
</style>
<g id="Base_1_">
</g>
<g id="Layer_1">
</g>
<g id="Layer_2">
	<g class="st1">
		<polygon class="st2" points="571.5,620.5 427.7,800.2 283.5,620.5 427.5,332.5 		"/>
		<polygon class="st2" points="931.5,620.5 644.5,979.5 500.7,800.2 644.5,620.5 500.5,332.5 644.5,44.5 		"/>
	</g>
	<g class="st1">
		<polygon class="st3" points="571.5,620.5 427.7,800.2 283.5,620.5 427.5,332.5 		"/>
		<polygon class="st3" points="931.5,620.5 644.5,979.5 500.7,800.2 644.5,620.5 500.5,332.5 644.5,44.5 		"/>
	</g>
	<polygon class="st4" points="571.5,620.5 427.7,800.2 283.5,620.5 427.5,332.5 	"/>
	<polygon class="st5" points="931.5,620.5 644.5,979.5 500.7,800.2 644.5,620.5 500.5,332.5 644.5,44.5 	"/>
	<g class="st1">
		<polygon class="st2" points="571.5,620.5 427.7,800.2 283.5,620.5 427.5,332.5 		"/>
		<polygon class="st2" points="931.5,620.5 644.5,979.5 500.7,800.2 644.5,620.5 500.5,332.5 644.5,44.5 		"/>
	</g>
	<g class="st1">
		<polygon class="st2" points="571.5,620.5 427.7,800.2 283.5,620.5 427.5,332.5 		"/>
		<polygon class="st2" points="931.5,620.5 644.5,979.5 500.7,800.2 644.5,620.5 500.5,332.5 644.5,44.5 		"/>
	</g>
	<g>
		<polygon class="st6" points="451.6,613.9 301.4,801.7 150.7,613.9 301.2,313 		"/>
		<polygon class="st7" points="827.7,613.9 527.9,989 377.6,801.7 527.9,613.9 377.4,313 527.9,12.2 		"/>
		<polygon class="st7" points="827.7,613.9 527.9,613.9 377.4,313 527.9,12.2 		"/>
		<linearGradient id="SVGID_1_" gradientUnits="userSpaceOnUse" x1="415.0775" y1="866.5854" x2="833.9567" y2="624.7454">
			<stop  offset="0" style="stop-color:#FFFFFF;stop-opacity:0"/>
			<stop  offset="5.053937e-02" style="stop-color:#F1F1F1;stop-opacity:2.021575e-02"/>
			<stop  offset="0.5267" style="stop-color:#717171;stop-opacity:0.2107"/>
			<stop  offset="0.8521" style="stop-color:#202020;stop-opacity:0.3408"/>
			<stop  offset="1" style="stop-color:#000000;stop-opacity:0.4"/>
		</linearGradient>
		<polygon class="st8" points="827.7,613.9 527.9,989 377.6,801.7 527.9,613.9 		"/>
	</g>
</g>
<g id="Layer_4">
</g>
<g id="Layer_5">
</g>
<g id="Layer_6">
</g>
</svg>
