<?xml version="1.0" encoding="UTF-8" standalone="no"?>
<svg
   xmlns:dc="http://purl.org/dc/elements/1.1/"
   xmlns:cc="http://creativecommons.org/ns#"
   xmlns:rdf="http://www.w3.org/1999/02/22-rdf-syntax-ns#"
   xmlns:svg="http://www.w3.org/2000/svg"
   xmlns="http://www.w3.org/2000/svg"
   id="svg8"
   version="1.1"
   viewBox="0 0 767.25382 986.27594"
   height="986.27594mm"
   width="767.25385mm">
  <defs
     id="defs2" />
  <metadata
     id="metadata5">
    <rdf:RDF>
      <cc:Work
         rdf:about="">
        <dc:format>image/svg+xml</dc:format>
        <dc:type
           rdf:resource="http://purl.org/dc/dcmitype/StillImage" />
        <dc:title></dc:title>
      </cc:Work>
    </rdf:RDF>
  </metadata>
  <g
     transform="translate(447.88289,322.0796)"
     id="layer1" opacity="0.35">
    <g
       transform="matrix(0.26458333,0,0,0.26458333,-53.838927,-52.408748)"
       id="g927">
      <g
         id="Base_1_">
</g>
      <g
         id="Layer_1">
</g>
      <g
         style="fill:#feffea;fill-opacity:1"
         transform="matrix(4.2833932,0,0,3.8161929,-2134.8074,-1065.786)"
         id="Layer_2">
	<g
   style="display:none;fill:#feffea;fill-opacity:1"
   class="st1"
   id="g864">
		<polygon
   style="display:inline;fill:#feffea;fill-opacity:1"
   class="st2"
   points="283.5,620.5 427.5,332.5 571.5,620.5 427.7,800.2 "
   id="polygon860" />

		<polygon
   style="display:inline;fill:#feffea;fill-opacity:1"
   class="st2"
   points="500.7,800.2 644.5,620.5 500.5,332.5 644.5,44.5 931.5,620.5 644.5,979.5 "
   id="polygon862" />

	</g>

	<g
   style="display:none;fill:#feffea;fill-opacity:1"
   class="st1"
   id="g870">
		<polygon
   style="display:inline;fill:#feffea;fill-opacity:1"
   class="st3"
   points="283.5,620.5 427.5,332.5 571.5,620.5 427.7,800.2 "
   id="polygon866" />

		<polygon
   style="display:inline;fill:#feffea;fill-opacity:1"
   class="st3"
   points="500.7,800.2 644.5,620.5 500.5,332.5 644.5,44.5 931.5,620.5 644.5,979.5 "
   id="polygon868" />

	</g>

	<polygon
   style="display:none;fill:#feffea;fill-opacity:1"
   class="st4"
   points="283.5,620.5 427.5,332.5 571.5,620.5 427.7,800.2 "
   id="polygon872" />

	<polygon
   style="display:none;fill:#feffea;fill-opacity:1"
   class="st5"
   points="500.7,800.2 644.5,620.5 500.5,332.5 644.5,44.5 931.5,620.5 644.5,979.5 "
   id="polygon874" />

	<g
   style="display:none;fill:#feffea;fill-opacity:1"
   class="st1"
   id="g880">
		<polygon
   style="display:inline;fill:#feffea;fill-opacity:1"
   class="st2"
   points="283.5,620.5 427.5,332.5 571.5,620.5 427.7,800.2 "
   id="polygon876" />

		<polygon
   style="display:inline;fill:#feffea;fill-opacity:1"
   class="st2"
   points="500.7,800.2 644.5,620.5 500.5,332.5 644.5,44.5 931.5,620.5 644.5,979.5 "
   id="polygon878" />

	</g>

	<g
   style="display:none;fill:#feffea;fill-opacity:1"
   class="st1"
   id="g886">
		<polygon
   style="display:inline;fill:#feffea;fill-opacity:1"
   class="st2"
   points="283.5,620.5 427.5,332.5 571.5,620.5 427.7,800.2 "
   id="polygon882" />

		<polygon
   style="display:inline;fill:#feffea;fill-opacity:1"
   class="st2"
   points="500.7,800.2 644.5,620.5 500.5,332.5 644.5,44.5 931.5,620.5 644.5,979.5 "
   id="polygon884" />

	</g>

	<polygon
   style="fill:#feffea;fill-opacity:1"
   points="150.7,613.9 301.2,313 451.6,613.9 301.4,801.7 "
   id="polygon888" />

	<polygon
   style="fill:#feffea;fill-opacity:1"
   points="377.6,801.7 527.9,613.9 377.4,313 527.9,12.2 827.7,613.9 527.9,989 "
   id="polygon890" />

</g>
      <g
         id="Layer_4">
</g>
      <g
         id="Layer_5">
</g>
      <g
         id="Layer_6">
</g>
    </g>
  </g>
  <style
     type="text/css"
     id="style856">
	.st0{display:none;fill:none;stroke:#000000;stroke-miterlimit:10;}
	.st1{display:none;}
	.st2{display:inline;}
	.st3{display:inline;fill:#C8CACB;}
	.st4{display:none;fill:#C4CBCA;}
	.st5{display:none;fill:#F4619A;}
	.st6{clip-path:url(#SVGID_2_);}
	.st7{display:inline;fill:none;stroke:#000000;stroke-miterlimit:10;}
	.st8{stroke:#000000;stroke-miterlimit:10;}
	.st9{fill:#FFFFFF;}
</style>
</svg>
